<svg width="400" height="400" xmlns="http://www.w3.org/2000/svg">
  <rect width="100%" height="100%" fill="transparent"/>
  
  <!-- الأنماط المتكررة للنجوم -->
  <g fill="#FFD600" opacity="0.5">
    <!-- نجوم كبيرة براقة -->
    <circle cx="30" cy="40" r="1.2" />
    <circle cx="350" cy="120" r="1.1" />
    <circle cx="290" cy="380" r="1.3" />
    <circle cx="380" cy="280" r="1" />
    <circle cx="200" cy="220" r="1.4" />
    <circle cx="150" cy="320" r="1.1" />
    <circle cx="80" cy="180" r="1.2" />
    <circle cx="370" cy="350" r="1.2" />
    
    <!-- نجوم متوسطة -->
    <circle cx="70" cy="60" r="0.8" />
    <circle cx="150" cy="90" r="0.7" />
    <circle cx="320" cy="40" r="0.9" />
    <circle cx="250" cy="140" r="0.8" />
    <circle cx="120" cy="240" r="0.9" />
    <circle cx="390" cy="190" r="0.7" />
    <circle cx="220" cy="310" r="0.8" />
    <circle cx="60" cy="370" r="0.7" />
    <circle cx="190" cy="30" r="0.9" />
    <circle cx="330" cy="220" r="0.6" />
    
    <!-- نجوم صغيرة -->
    <circle cx="40" cy="120" r="0.5" />
    <circle cx="110" cy="30" r="0.4" />
    <circle cx="220" cy="90" r="0.5" />
    <circle cx="290" cy="120" r="0.4" />
    <circle cx="350" cy="70" r="0.5" />
    <circle cx="390" cy="140" r="0.4" />
    <circle cx="280" cy="190" r="0.5" />
    <circle cx="170" cy="170" r="0.4" />
    <circle cx="90" cy="220" r="0.3" />
    <circle cx="50" cy="290" r="0.5" />
    <circle cx="150" cy="260" r="0.3" />
    <circle cx="230" cy="370" r="0.4" />
    <circle cx="310" cy="340" r="0.5" />
    <circle cx="380" cy="310" r="0.3" />
    <circle cx="40" cy="350" r="0.4" />
  </g>
</svg> 